<svg width="1200" height="1200" viewBox="0 0 1200 1200" fill="none" xmlns="http://www.w3.org/2000/svg">
<rect width="1200" height="1200" fill="white"/>
<path d="M915.168 748.588V649.052H815.646V617.754H848.82V451.87H815.646V385.522H782.472V352.348H749.298V319.174H682.95V286H517.066V319.174H450.718V352.348H417.544V385.522H384.37V451.87H351.196V617.754H384.37V649.052H284.82V748.588H251.646V814.936H284.82V848.11H384.343V814.936H417.517V881.284H450.691V914.458H517.039V881.284H550.213V848.11H583.387V781.762H616.561V848.11H649.735V881.284H682.909V914.458H749.257V881.284H782.431V814.936H815.605V848.11H915.127V814.936H948.301V748.588H915.127H915.168Z" fill="#D35F68"/>
<path d="M716.105 352.349H749.279V319.175H716.105H682.931V352.349H716.105Z" fill="black"/>
<path d="M583.411 319.174H616.585H649.759H682.933V286H649.759H616.585H583.411H550.237H517.049V319.174H550.237H583.411Z" fill="black"/>
<path d="M915.165 682.24V665.646V649.052H881.991H848.817H815.643V682.24H848.817H881.991V715.414H865.411H848.817H815.643V748.588H848.817H865.411H881.991H915.165V715.414V682.24Z" fill="black"/>
<path d="M848.817 814.937H815.643V848.111H848.817H881.991H915.165V814.937H881.991H848.817Z" fill="black"/>
<path d="M682.931 881.298V914.472H716.105H749.279V881.298H716.105H682.931Z" fill="black"/>
<path d="M749.293 781.762H749.279V748.588H716.105V715.414H682.931V748.588V781.762H716.105V814.936H749.293H782.467H815.641V781.762H782.467H749.293Z" fill="black"/>
<path d="M915.166 748.588V781.762V814.936H948.353V781.762V748.588H915.166Z" fill="black"/>
<path d="M749.278 848.111V881.298H782.466V848.111V814.937H749.278V848.111Z" fill="black"/>
<path d="M682.931 848.11H649.757V881.284H682.931V848.11Z" fill="black"/>
<path d="M649.764 814.936V781.762H616.59V748.588H583.416V781.762H550.242V802.47V814.936V848.11H583.416V814.936V802.47V781.762H616.59V814.936V825.29V848.11H649.764V825.29V814.936Z" fill="black"/>
<path d="M815.643 518.233V551.407V584.594V617.768H848.817V584.594V551.407V518.233V485.059V451.885H815.643V485.059V518.233Z" fill="black"/>
<path d="M815.64 649.052V617.768H782.466V649.052V682.24H749.278V715.414H782.466H790.221H815.64V682.24V649.052Z" fill="black"/>
<path d="M782.467 451.884H815.641V418.71V385.522H782.467V418.71V451.884Z" fill="black"/>
<path d="M782.452 352.348H749.278V385.522H782.452V352.348Z" fill="black"/>
<path d="M517.041 352.349V319.175H483.867H450.693V352.349H483.867H517.041Z" fill="black"/>
<path d="M351.174 748.588H361.055H384.348V715.414H361.055H351.174H317.986V682.24H351.16H384.348V649.052H351.16H317.986H284.812V665.646V682.24V715.414V748.588H317.986H351.174Z" fill="black"/>
<path d="M317.986 814.937H284.812V848.111H317.986H351.16H384.348V814.937H351.16H317.986Z" fill="black"/>
<path d="M450.693 881.298V914.472H483.867H517.041V881.298H483.867H450.693Z" fill="black"/>
<path d="M284.82 781.762V748.588H251.646V781.762V814.936H284.82V781.762Z" fill="black"/>
<path d="M450.695 814.936H483.869V781.762H517.043V748.588V715.414H483.869V748.588H450.695V781.762H417.521H384.347V814.936H417.521V848.11V881.298H450.695V848.11V814.936Z" fill="black"/>
<path d="M550.223 848.11H517.049V881.284H550.223V848.11Z" fill="black"/>
<path d="M450.696 682.24H417.522V715.414H450.696V682.24Z" fill="black"/>
<path d="M417.521 682.24V649.052V617.768H384.347V649.052V682.24V715.414H417.521V682.24Z" fill="black"/>
<path d="M384.347 584.594V551.407V518.233V485.059V451.885H351.173V485.059V518.233V551.407L351.159 584.594V617.768H384.347V584.594Z" fill="black"/>
<path d="M417.521 418.71V385.522H384.347V418.71V451.884H417.521V418.71Z" fill="black"/>
<path d="M450.696 352.348H417.522V385.522H450.696V352.348Z" fill="black"/>
<path d="M716.105 617.769V584.595H682.931V572.239V551.407H649.757V584.595V617.769H682.931H716.105Z" fill="black"/>
<path d="M716.118 584.581V551.407H682.944V584.581H716.118Z" fill="#F8F6F4"/>
<path d="M550.243 617.769V584.595H517.055V551.407H483.881V584.595V617.769H517.055H550.243Z" fill="black"/>
<path d="M550.242 584.581V551.407H517.068V584.581H550.242Z" fill="#F8F6F4"/>
<path d="M583.403 385.536V352.348H550.229H517.041V385.536H497.626H483.867V385.522H450.693V407.175V451.884H483.867V418.71H497.626H550.229V385.536H541.752V385.522V385.536H583.403Z" fill="#F8F6F4"/>
</svg>
